<?xml version="1.0" encoding="UTF-8" standalone="no" ?>
<!DOCTYPE svg PUBLIC "-//W3C//DTD SVG 1.1//EN" "http://www.w3.org/Graphics/SVG/1.1/DTD/svg11.dtd">
<svg xmlns="http://www.w3.org/2000/svg" xmlns:xlink="http://www.w3.org/1999/xlink" version="1.1" width="50" height="50" viewBox="0 0 500 500" xml:space="preserve">
<desc>Created with Fabric.js 4.6.0</desc>
<defs>
</defs>
<g transform="matrix(3.46 0 0 3.63 282.68 163.54)" id="8h12r4P3J2khSe3gMWwW8"  >
<path style="stroke: rgb(255,255,255); stroke-width: 0; stroke-dasharray: none; stroke-linecap: butt; stroke-dashoffset: 0; stroke-linejoin: miter; stroke-miterlimit: 4; fill: rgb(255,255,255); fill-rule: nonzero; opacity: 1;" vector-effect="non-scaling-stroke"  transform=" translate(0, 0)" d="M 8.96873 4.4158 L 2.9895700000000005 -4.4158 L 2.6604400000000004 -0.7953899999999998 L -1.2818199999999997 -1.67596 L -1.2818199999999997 -1.67596 C -4.07163 -2.2991099999999998 -6.99865 -1.46251 -8.96874 0.5211200000000002 L -8.96874 0.5211200000000002 L -5.787170000000001 0.8502500000000002 L -6.55782 1.5149000000000001 L -6.55782 1.5149000000000001 C -6.76918 1.6971800000000001 -6.862360000000001 1.9731900000000002 -6.80222 2.2387900000000003 C -6.7420800000000005 2.5043900000000003 -6.53777 2.71917 -6.266360000000001 2.80209 L -6.266360000000001 2.80209 L -6.266360000000001 2.80209 C -4.328290000000001 3.3942300000000003 -2.2715700000000005 3.5447900000000003 -0.26140000000000096 3.24167 L 3.559899999999999 2.6654400000000003 L 3.559899999999999 2.6654400000000003 C 3.578949999999999 2.66257 3.592979999999999 2.64691 3.592979999999999 2.6285300000000005 L 3.592979999999999 2.1007900000000004 L 3.592979999999999 2.1007900000000004 C 3.592979999999999 1.6387900000000004 3.808629999999999 1.2007500000000004 4.181399999999999 0.9055500000000003 L 4.251229999999999 0.8502500000000003 z" stroke-linecap="round" />
</g>
<g transform="matrix(3.46 0 0 3.63 250 250)" id="6MyuVnlJWMT81cmVSU2c5"  >
<path style="stroke: rgb(255,255,255); stroke-width: 0; stroke-dasharray: none; stroke-linecap: butt; stroke-dashoffset: 0; stroke-linejoin: miter; stroke-miterlimit: 4; fill: rgb(255,255,255); fill-rule: nonzero; opacity: 1;" vector-effect="non-scaling-stroke"  transform=" translate(-53.75, -66.4)" d="M 53.07419 125.41689 C 53.79097 121.09536 52.793350000000004 119.16604 52.13736 117.86379 C 51.48137 116.56154 52.34484 116.19582 45.26156 108.88712 C 39.4831 102.92475999999999 33.652150000000006 97.68854999999999 27.826460000000004 92.28738 C 25.163220000000003 89.81821 23.152410000000003 86.72834 21.973340000000004 83.2933 L 17.846300000000003 71.2662 C 17.846300000000003 71.2662 15.042760000000003 79.4691 19.694480000000002 89.05383 C 24.346200000000003 98.63857 36.4532 109.60513 36.4532 109.60513 C 36.4532 109.60513 19.238090000000003 105.49096 11.186980000000002 91.32415 C 3.1358700000000024 77.15735000000001 4.248770000000002 52.937900000000006 4.248770000000002 52.937900000000006 L 1.7763568394002505e-15 53.55366000000001 C 1.7763568394002505e-15 53.55366000000001 0.5027200000000017 46.40749000000001 3.827840000000002 39.32083000000001 C 7.152960000000002 32.23416000000001 13.300490000000002 25.207000000000008 13.300490000000002 25.207000000000008 L 9.112040000000002 27.226640000000007 L 4.2487600000000025 30.317840000000007 C 4.2487600000000025 30.317840000000007 6.465160000000003 24.536340000000006 10.775500000000003 19.824780000000008 C 15.085840000000003 15.113220000000007 21.490140000000004 11.471610000000007 21.490140000000004 11.471610000000007 L 17.05664 9.505030000000007 L 26.151360000000004 5.287220000000007 C 26.151360000000004 5.287220000000007 46.85741 -0.4142999999999937 57.140660000000004 1.6793000000000067 C 67.42391 3.7729000000000066 72.03068 12.188610000000006 72.03068 12.188610000000006 L 67.29297 10.019730000000006 C 59.865289999999995 6.619400000000006 51.389509999999994 6.315920000000006 43.73766 9.176320000000006 L 37.59751 11.471620000000005 C 37.59751 11.471620000000005 50.15406 9.441160000000005 59.22766 11.471620000000005 C 68.30127 13.502080000000005 73.89193 19.593450000000004 73.89193 19.593450000000004 C 73.89193 19.593450000000004 78.90607 11.946300000000004 74.71825 7.123960000000004 C 70.53044 2.301620000000004 57.14067 0.3041100000000041 57.14067 0.3041100000000041 L 63.07477 0.03687000000000412 C 66.09799 -0.09927999999999587 68.6716 0.13712000000000413 71.61944 0.8217300000000041 C 73.87462 1.3454800000000042 75.7345 1.9881600000000041 77.83194 2.968440000000004 C 80.21065 4.080180000000004 83.53615 5.8784000000000045 84.61719000000001 7.123960000000004 C 90.0109 13.338490000000004 87.08990000000001 24.669600000000003 87.08990000000001 24.669600000000003 C 87.08990000000001 24.669600000000003 88.75764000000001 23.46251 89.89977000000002 21.30515 C 91.04190000000001 19.14779 91.65843000000002 16.04016 91.65843000000002 16.04016 C 91.65843000000002 16.04016 93.38257000000003 17.39667 93.38257000000003 22.092100000000002 C 93.38257000000003 26.787530000000004 91.65843000000002 34.82188 91.65843000000002 34.82188 C 91.65843000000002 34.82188 95.60121000000002 34.99545 97.48230000000002 39.0923 C 98.32906000000003 40.936460000000004 101.26681000000002 46.33898 103.19719000000002 49.87253 C 104.16703000000003 51.647819999999996 105.65004000000002 53.08913 107.45227000000003 54.00796 L 107.50152000000003 54.033069999999995 C 107.50152000000003 54.033069999999995 106.63699000000003 54.641729999999995 105.08739000000003 55.041979999999995 C 103.53778000000003 55.442229999999995 101.30310000000003 55.63406 101.30310000000003 55.63406 C 105.19146000000003 63.04996 105.24662000000004 71.88998 101.45113000000003 79.35383999999999 L 96.73457000000003 88.62897999999998 L 102.82594000000003 84.06044999999999 L 101.57511000000004 91.77881 C 99.64385000000004 103.69578999999999 92.80362000000004 114.25672 82.71844000000004 120.89246999999999 L 73.89193000000004 126.70004999999999 C 73.89193000000004 126.70004999999999 78.41217000000005 121.01561 81.20405000000005 115.93946999999999 C 83.99593000000006 110.86332999999999 85.05944000000005 106.39547999999999 85.05944000000005 106.39547999999999 C 76.11672000000006 116.63681999999999 65.53910000000005 125.32587 53.75620000000005 132.10971 L 52.57213000000005 132.79142000000002 C 52.57213000000005 132.79142000000002 52.35741000000005 129.73843000000002 53.07419000000005 125.41690000000001 z M 73.25017 76.73483 C 72.83373 78.05133000000001 73.25017 80.00334000000001 73.25017 80.00334000000001 C 73.25017 80.00334000000001 77.62029 84.15716 79.28605999999999 86.92449 C 80.95182999999999 89.69182 79.91326 91.07265000000001 79.91326 91.07265000000001 C 79.91326 91.07265000000001 83.08157999999999 89.13614000000001 84.57271 86.36881000000001 C 86.06384 83.60148000000001 85.87779 80.00333 85.87779 80.00333 C 85.87779 80.00333 87.06693 81.16357 87.59647000000001 83.59201 C 87.98315000000001 85.36531000000001 87.24496 86.75461 87.59647000000001 87.74111 C 88.42935000000001 90.07857000000001 89.20933000000001 89.35315 89.20933000000001 89.35315 C 89.20933000000001 89.35315 92.43775000000001 81.7822 93.10943 77.67151 C 93.78111 73.56081 91.89605 72.91037 91.89605 72.91037 C 91.89605 72.91037 89.95689 73.63579 88.53292 72.91037 C 87.10895000000001 72.18495 86.20019 70.0087 86.20019 70.0087 C 86.20019 70.0087 84.86454 71.95117 82.04348 73.13333 C 79.22242 74.31549 74.91594 74.73734 74.91594 74.73734 C 74.91594 74.73734 73.66661 75.41832000000001 73.25017000000001 76.73482 z M 52.49115 16.98394 C 52.49115 16.98394 57.316469999999995 19.8262 60.06304 21.8037 C 62.80961 23.7812 63.47743 24.89394 63.47743 24.89394 C 63.47743 24.89394 61.20126 24.76605 59.34028 25.25974 C 57.4793 25.75343 56.03352 26.86871 56.03352 26.86871 L 47.67374 24.89394 L 40.81112 23.930970000000002 C 39.66476 23.770110000000003 38.497620000000005 23.845270000000003 37.38136 24.151840000000004 L 36.34834 24.435540000000003 C 34.95103 24.819290000000002 33.82546 25.854920000000003 33.32694 27.215510000000002 C 32.82842 28.576110000000003 33.01845 30.093770000000003 33.83706 31.289440000000003 L 35.617580000000004 33.89009 C 35.617580000000004 33.89009 33.46249 28.69938 36.63035000000001 27.97873 C 39.79820000000001 27.25807 48.28900000000001 31.007479999999997 48.28900000000001 31.007479999999997 L 43.971810000000005 36.13623 C 40.35629 40.43141 38.479240000000004 45.92425 38.71002000000001 51.53382 L 39.073420000000006 60.36685 C 39.073420000000006 60.36685 36.550110000000004 59.02889 35.617580000000004 54.64052 C 34.685050000000004 50.25215 35.34331 42.81336 35.34331 42.81336 C 35.34331 42.81336 32.629740000000005 47.78461 32.69831 53.1846 C 32.76688 58.584590000000006 35.61758 64.41333 35.61758 64.41333 C 35.61758 64.41333 37.926719999999996 70.57863 48.61537 80.00207 C 59.30401 89.4255 63.89053 100.79056 63.89053 100.79056 L 61.650999999999996 91.91552 C 61.09036999999999 89.6938 60.09016 87.60696 58.70945 85.7783 L 52.26134 77.23815 C 52.26134 77.23815 44.620329999999996 70.61519 42.7827 62.406690000000005 C 40.94507 54.198190000000004 44.91082 44.404140000000005 44.91082 44.404140000000005 C 44.91082 44.404140000000005 45.080130000000004 54.06308000000001 47.377880000000005 58.56372 C 49.675630000000005 63.06436 54.101820000000004 62.406690000000005 54.101820000000004 62.406690000000005 C 54.101820000000004 62.406690000000005 52.495850000000004 61.28275000000001 51.602540000000005 59.52165000000001 C 50.709230000000005 57.760540000000006 50.52857 55.362280000000005 50.52857 55.362280000000005 C 50.52857 55.362280000000005 52.29593 57.582800000000006 53.750750000000004 58.322970000000005 C 55.205580000000005 59.063140000000004 56.34787 58.322970000000005 56.34787 58.322970000000005 L 63.16258 55.904990000000005 C 64.16955 55.547700000000006 65.24361999999999 55.419830000000005 66.30633 55.530730000000005 L 70.07302 55.923790000000004 C 70.07302 55.923790000000004 61.79954 59.64997 61.79954 63.70816000000001 C 61.79954 67.76635 70.07302 72.15656000000001 70.07302 72.15656000000001 C 70.07302 72.15656000000001 78.13222 73.33683 82.82275 69.53160000000001 C 87.51328 65.72637000000002 83.54928 61.072370000000014 83.54928 61.072370000000014 L 80.99167 60.04210000000001 C 78.66211 59.10370000000001 76.85851 57.19477000000001 76.05369 54.81575000000001 L 75.99441 54.64052000000001 L 77.32162 55.712500000000006 C 77.32162 55.712500000000006 78.4126 54.505950000000006 80.02055999999999 54.505950000000006 C 81.62852999999998 54.505950000000006 83.75348 55.712500000000006 83.75348 55.712500000000006 C 83.75348 55.712500000000006 86.7762 55.95787000000001 88.74149 55.57502000000001 C 90.70678 55.19217000000001 91.61464 54.18110000000001 91.61464 54.18110000000001 C 91.61464 54.18110000000001 92.38033999999999 54.32713000000001 92.63557 55.04178000000001 C 92.8908 55.75644000000001 92.63557 57.03971000000001 92.63557 57.03971000000001 C 92.63557 57.03971000000001 92.21951 57.61426000000001 90.94335 59.09461 C 89.66718999999999 60.574960000000004 87.53092 62.9611 87.53092 62.9611 L 87.53092 68.26993 C 87.53092 68.26993 88.61613 69.83718 90.35171 69.1854 C 92.08729 68.53362 94.47323 65.66282 94.47323 65.66282 C 94.47323 65.66282 94.67742 61.501129999999996 94.47323 58.84587 C 94.26905000000001 56.19061 93.65649 55.041779999999996 93.65649 55.041779999999996 C 93.65649 55.041779999999996 91.83044000000001 51.68982 86.007 48.04693999999999 C 80.18356 44.404059999999994 79.66976000000001 37.83999999999999 79.66976000000001 37.83999999999999 L 81.50743000000001 41.05504999999999 C 81.50743000000001 41.05504999999999 83.81633000000001 40.53667999999999 85.33909000000001 41.05504999999999 C 86.86185000000002 41.573419999999984 87.59848000000001 43.12853999999999 87.59848000000001 43.12853999999999 L 87.12254000000001 43.709459999999986 C 87.12254000000001 43.709459999999986 86.75067000000001 44.45194999999998 87.23040000000002 45.28253999999998 C 87.71013000000002 46.113129999999984 89.04145000000001 47.031829999999985 89.04145000000001 47.031829999999985 L 88.73281000000001 42.003939999999986 C 88.58515000000001 39.469309999999986 87.49413000000001 37.081729999999986 85.67449000000002 35.31111999999999 C 84.34022000000002 34.01279999999999 82.84126000000002 32.56096999999999 82.02689000000002 31.007469999999987 C 78.87836000000003 25.001309999999986 76.44734000000003 23.007189999999987 76.44734000000003 23.007189999999987 C 76.44734000000003 23.007189999999987 75.79345000000002 24.233019999999986 75.07476000000003 25.259709999999988 C 74.35608000000002 26.286399999999986 73.57260000000002 27.113959999999988 73.57260000000002 27.113959999999988 L 73.37273000000002 26.94390999999999 C 67.67593000000002 22.09711999999999 60.85896000000002 18.749669999999988 53.54050000000002 17.20533999999999 L 52.491150000000026 16.983909999999987 z M 52.20972 104.02132 C 57.28272 107.50392000000001 59.71825 113.72863000000001 58.35574 119.72925000000001 C 58.35574 119.72925000000001 62.25371 115.45794000000001 60.05059 109.00979000000001 C 57.84747 102.56164000000001 49.54327 93.93666 49.54327 93.93666 C 49.54327 93.93666 43.9643 89.49228000000001 40.52529 84.31079 C 37.086279999999995 79.1293 35.78723 73.21072 35.78723 73.21072 C 35.78723 73.21072 34.73045 77.3261 37.01417 82.50759 C 39.29789 87.68907999999999 44.9221 93.93666999999999 44.9221 93.93666999999999 C 44.9221 93.93666999999999 34.94182 87.90276999999999 30.14477 80.54068 C 25.347720000000002 73.17859 25.73388 64.48831 25.73388 64.48831 C 25.73388 64.48831 24.258 72.23028 26.20588 78.34192999999999 C 28.153760000000002 84.45356999999998 33.52539 88.93487999999999 33.52539 88.93487999999999 L 50.1831 102.63005999999999 z M 64.13051 82.05486 L 64.35457 85.78438 C 64.49025999999999 88.04298 65.07956999999999 90.25109 66.08735 92.27694 L 66.69111 93.49064 C 68.04127 96.20476 68.96293 99.11162 69.42332999999999 102.10786 C 69.68946999999999 103.83987 69.61511999999999 105.60717 69.20443999999999 107.31071 L 66.92470999999999 116.76739 C 66.92470999999999 116.76739 72.08322999999999 111.81427000000001 73.80273 107.46177 C 75.52224 103.10927 73.80273 99.35739 73.80273 99.35739 L 70.93495999999999 93.73053 z M 11.90918 46.54317 C 11.90918 46.54317 8.69844 53.88985 9.299489999999999 64.59609 C 9.90054 75.30232000000001 14.313379999999999 89.36811 14.313379999999999 89.36811 C 14.313379999999999 89.36811 11.15388 74.3814 12.374769999999998 62.04996 C 13.595659999999999 49.71852 19.19693 40.04235 19.19693 40.04235 L 13.336669999999998 41.09419 C 13.336669999999998 41.09419 13.372389999999998 37.62075 16.21278 32.02345 C 19.053169999999998 26.426149999999996 24.69822 18.705009999999994 24.69822 18.705009999999994 L 20.095959999999998 22.801849999999995 C 15.659909999999998 26.750729999999994 12.279069999999997 31.743879999999997 10.259659999999998 37.329049999999995 L 6.725109999999999 47.10471 z" stroke-linecap="round" />
</g>
</svg>